<?xml version="1.0" encoding="UTF-8" standalone="no"?>
<!DOCTYPE svg PUBLIC "-//W3C//DTD SVG 1.1//EN"
 "http://www.w3.org/Graphics/SVG/1.1/DTD/svg11.dtd">
<!-- Generated by graphviz version 2.38.0 (20140413.2041)
 -->
<!-- Title: real.bin; 3376 samples Pages: 1 -->
<svg width="100%" height="100%"
  xmlns="http://www.w3.org/2000/svg" xmlns:xlink="http://www.w3.org/1999/xlink">
<script type="text/ecmascript"><![CDATA[
// SVGPan
// http://www.cyberz.org/blog/2009/12/08/svgpan-a-javascript-svg-panzoomdrag-library/
// Local modification: if(true || ...) below to force panning, never moving.

/**
 *  SVGPan library 1.2
 * ====================
 *
 * Given an unique existing element with id "viewport", including the
 * the library into any SVG adds the following capabilities:
 *
 *  - Mouse panning
 *  - Mouse zooming (using the wheel)
 *  - Object dargging
 *
 * Known issues:
 *
 *  - Zooming (while panning) on Safari has still some issues
 *
 * Releases:
 *
 * 1.2, Sat Mar 20 08:42:50 GMT 2010, Zeng Xiaohui
 *	Fixed a bug with browser mouse handler interaction
 *
 * 1.1, Wed Feb  3 17:39:33 GMT 2010, Zeng Xiaohui
 *	Updated the zoom code to support the mouse wheel on Safari/Chrome
 *
 * 1.0, Andrea Leofreddi
 *	First release
 *
 * This code is licensed under the following BSD license:
 *
 * Copyright 2009-2010 Andrea Leofreddi <a.leofreddi@itcharm.com>. All rights reserved.
 *
 * Redistribution and use in source and binary forms, with or without modification, are
 * permitted provided that the following conditions are met:
 *
 *    1. Redistributions of source code must retain the above copyright notice, this list of
 *       conditions and the following disclaimer.
 *
 *    2. Redistributions in binary form must reproduce the above copyright notice, this list
 *       of conditions and the following disclaimer in the documentation and/or other materials
 *       provided with the distribution.
 *
 * THIS SOFTWARE IS PROVIDED BY Andrea Leofreddi ``AS IS'' AND ANY EXPRESS OR IMPLIED
 * WARRANTIES, INCLUDING, BUT NOT LIMITED TO, THE IMPLIED WARRANTIES OF MERCHANTABILITY AND
 * FITNESS FOR A PARTICULAR PURPOSE ARE DISCLAIMED. IN NO EVENT SHALL Andrea Leofreddi OR
 * CONTRIBUTORS BE LIABLE FOR ANY DIRECT, INDIRECT, INCIDENTAL, SPECIAL, EXEMPLARY, OR
 * CONSEQUENTIAL DAMAGES (INCLUDING, BUT NOT LIMITED TO, PROCUREMENT OF SUBSTITUTE GOODS OR
 * SERVICES; LOSS OF USE, DATA, OR PROFITS; OR BUSINESS INTERRUPTION) HOWEVER CAUSED AND ON
 * ANY THEORY OF LIABILITY, WHETHER IN CONTRACT, STRICT LIABILITY, OR TORT (INCLUDING
 * NEGLIGENCE OR OTHERWISE) ARISING IN ANY WAY OUT OF THE USE OF THIS SOFTWARE, EVEN IF
 * ADVISED OF THE POSSIBILITY OF SUCH DAMAGE.
 *
 * The views and conclusions contained in the software and documentation are those of the
 * authors and should not be interpreted as representing official policies, either expressed
 * or implied, of Andrea Leofreddi.
 */

var root = document.documentElement;

var state = 'none', stateTarget, stateOrigin, stateTf;

setupHandlers(root);

/**
 * Register handlers
 */
function setupHandlers(root){
	setAttributes(root, {
		"onmouseup" : "add(evt)",
		"onmousedown" : "handleMouseDown(evt)",
		"onmousemove" : "handleMouseMove(evt)",
		"onmouseup" : "handleMouseUp(evt)",
		//"onmouseout" : "handleMouseUp(evt)", // Decomment this to stop the pan functionality when dragging out of the SVG element
	});

	if(navigator.userAgent.toLowerCase().indexOf('webkit') >= 0)
		window.addEventListener('mousewheel', handleMouseWheel, false); // Chrome/Safari
	else
		window.addEventListener('DOMMouseScroll', handleMouseWheel, false); // Others

	var g = svgDoc.getElementById("svg");
	g.width = "100%";
	g.height = "100%";
}

/**
 * Instance an SVGPoint object with given event coordinates.
 */
function getEventPoint(evt) {
	var p = root.createSVGPoint();

	p.x = evt.clientX;
	p.y = evt.clientY;

	return p;
}

/**
 * Sets the current transform matrix of an element.
 */
function setCTM(element, matrix) {
	var s = "matrix(" + matrix.a + "," + matrix.b + "," + matrix.c + "," + matrix.d + "," + matrix.e + "," + matrix.f + ")";

	element.setAttribute("transform", s);
}

/**
 * Dumps a matrix to a string (useful for debug).
 */
function dumpMatrix(matrix) {
	var s = "[ " + matrix.a + ", " + matrix.c + ", " + matrix.e + "\n  " + matrix.b + ", " + matrix.d + ", " + matrix.f + "\n  0, 0, 1 ]";

	return s;
}

/**
 * Sets attributes of an element.
 */
function setAttributes(element, attributes){
	for (i in attributes)
		element.setAttributeNS(null, i, attributes[i]);
}

/**
 * Handle mouse move event.
 */
function handleMouseWheel(evt) {
	if(evt.preventDefault)
		evt.preventDefault();

	evt.returnValue = false;

	var svgDoc = evt.target.ownerDocument;

	var delta;

	if(evt.wheelDelta)
		delta = evt.wheelDelta / 3600; // Chrome/Safari
	else
		delta = evt.detail / -90; // Mozilla

	var z = 1 + delta; // Zoom factor: 0.9/1.1

	var g = svgDoc.getElementById("viewport");

	var p = getEventPoint(evt);

	p = p.matrixTransform(g.getCTM().inverse());

	// Compute new scale matrix in current mouse position
	var k = root.createSVGMatrix().translate(p.x, p.y).scale(z).translate(-p.x, -p.y);

        setCTM(g, g.getCTM().multiply(k));

	stateTf = stateTf.multiply(k.inverse());
}

/**
 * Handle mouse move event.
 */
function handleMouseMove(evt) {
	if(evt.preventDefault)
		evt.preventDefault();

	evt.returnValue = false;

	var svgDoc = evt.target.ownerDocument;

	var g = svgDoc.getElementById("viewport");

	if(state == 'pan') {
		// Pan mode
		var p = getEventPoint(evt).matrixTransform(stateTf);

		setCTM(g, stateTf.inverse().translate(p.x - stateOrigin.x, p.y - stateOrigin.y));
	} else if(state == 'move') {
		// Move mode
		var p = getEventPoint(evt).matrixTransform(g.getCTM().inverse());

		setCTM(stateTarget, root.createSVGMatrix().translate(p.x - stateOrigin.x, p.y - stateOrigin.y).multiply(g.getCTM().inverse()).multiply(stateTarget.getCTM()));

		stateOrigin = p;
	}
}

/**
 * Handle click event.
 */
function handleMouseDown(evt) {
	if(evt.preventDefault)
		evt.preventDefault();

	evt.returnValue = false;

	var svgDoc = evt.target.ownerDocument;

	var g = svgDoc.getElementById("viewport");

	if(true || evt.target.tagName == "svg") {
		// Pan mode
		state = 'pan';

		stateTf = g.getCTM().inverse();

		stateOrigin = getEventPoint(evt).matrixTransform(stateTf);
	} else {
		// Move mode
		state = 'move';

		stateTarget = evt.target;

		stateTf = g.getCTM().inverse();

		stateOrigin = getEventPoint(evt).matrixTransform(stateTf);
	}
}

/**
 * Handle mouse button release event.
 */
function handleMouseUp(evt) {
	if(evt.preventDefault)
		evt.preventDefault();

	evt.returnValue = false;

	var svgDoc = evt.target.ownerDocument;

	if(state == 'pan' || state == 'move') {
		// Quit pan mode
		state = '';
	}
}

]]></script>
<g id="viewport" transform="translate(0,0)">
<g id="viewport" class="graph" transform="scale(1 1) rotate(0) translate(4 700)">
<title>real.bin; 3376 samples</title>
<polygon fill="white" stroke="none" points="-4,4 -4,-700 1190,-700 1190,4 -4,4"/>
<!-- Legend -->
<g id="node1" class="node"><title>Legend</title>
<text text-anchor="start" x="8" y="-672.8" font-family="Times,serif" font-size="24.00">real.bin</text>
<text text-anchor="start" x="8" y="-646.8" font-family="Times,serif" font-size="24.00">Total samples: 3376</text>
<text text-anchor="start" x="8" y="-620.8" font-family="Times,serif" font-size="24.00">Focusing on: 3376</text>
<text text-anchor="start" x="8" y="-594.8" font-family="Times,serif" font-size="24.00">Dropped nodes with &lt;= 16 abs(samples)</text>
<text text-anchor="start" x="8" y="-568.8" font-family="Times,serif" font-size="24.00">Dropped edges with &lt;= 3 samples</text>
</g>
<!-- N1 -->
<g id="node2" class="node"><title>N1</title>
<polygon fill="none" stroke="black" points="496,-507 422,-507 422,-472 496,-472 496,-507"/>
<text text-anchor="middle" x="459" y="-496.6" font-family="Times,serif" font-size="8.00">__libc_start_main</text>
<text text-anchor="end" x="488" y="-487.6" font-family="Times,serif" font-size="8.00">0 (0.0%)</text>
<text text-anchor="end" x="488" y="-478.6" font-family="Times,serif" font-size="8.00">of 3376 (100.0%)</text>
</g>
<!-- N3 -->
<g id="node4" class="node"><title>N3</title>
<polygon fill="none" stroke="black" points="495.5,-421 422.5,-421 422.5,-386 495.5,-386 495.5,-421"/>
<text text-anchor="middle" x="459" y="-410.6" font-family="Times,serif" font-size="8.00">main</text>
<text text-anchor="end" x="487.5" y="-401.6" font-family="Times,serif" font-size="8.00">0 (0.0%)</text>
<text text-anchor="end" x="487.5" y="-392.6" font-family="Times,serif" font-size="8.00">of 3376 (100.0%)</text>
</g>
<!-- N1&#45;&gt;N3 -->
<g id="edge2" class="edge"><title>N1&#45;&gt;N3</title>
<path fill="none" stroke="black" stroke-width="2" d="M459,-471.904C459,-460.284 459,-444.509 459,-431.141"/>
<polygon fill="black" stroke="black" stroke-width="2" points="462.5,-431.061 459,-421.061 455.5,-431.061 462.5,-431.061"/>
<text text-anchor="middle" x="473" y="-442.8" font-family="Times,serif" font-size="14.00">3376</text>
</g>
<!-- N2 -->
<g id="node3" class="node"><title>N2</title>
<polygon fill="none" stroke="black" points="495.5,-644.5 422.5,-644.5 422.5,-609.5 495.5,-609.5 495.5,-644.5"/>
<text text-anchor="middle" x="459" y="-634.1" font-family="Times,serif" font-size="8.00">_start</text>
<text text-anchor="end" x="487.5" y="-625.1" font-family="Times,serif" font-size="8.00">0 (0.0%)</text>
<text text-anchor="end" x="487.5" y="-616.1" font-family="Times,serif" font-size="8.00">of 3376 (100.0%)</text>
</g>
<!-- N2&#45;&gt;N1 -->
<g id="edge1" class="edge"><title>N2&#45;&gt;N1</title>
<path fill="none" stroke="black" stroke-width="2" d="M459,-609.385C459,-586.427 459,-544.738 459,-517.332"/>
<polygon fill="black" stroke="black" stroke-width="2" points="462.5,-517.251 459,-507.251 455.5,-517.251 462.5,-517.251"/>
<text text-anchor="middle" x="473" y="-528.8" font-family="Times,serif" font-size="14.00">3376</text>
</g>
<!-- N4 -->
<g id="node5" class="node"><title>N4</title>
<polygon fill="none" stroke="black" points="493.5,-327.5 424.5,-327.5 424.5,-292.5 493.5,-292.5 493.5,-327.5"/>
<text text-anchor="middle" x="459" y="-317.1" font-family="Times,serif" font-size="8.00">mg3P</text>
<text text-anchor="end" x="485.5" y="-308.1" font-family="Times,serif" font-size="8.00">0 (0.0%)</text>
<text text-anchor="end" x="485.5" y="-299.1" font-family="Times,serif" font-size="8.00">of 2303 (68.2%)</text>
</g>
<!-- N3&#45;&gt;N4 -->
<g id="edge3" class="edge"><title>N3&#45;&gt;N4</title>
<path fill="none" stroke="black" stroke-width="2" d="M459,-385.717C459,-372.303 459,-353.245 459,-337.735"/>
<polygon fill="black" stroke="black" stroke-width="2" points="462.5,-337.676 459,-327.676 455.5,-337.676 462.5,-337.676"/>
<text text-anchor="middle" x="473" y="-356.8" font-family="Times,serif" font-size="14.00">2303</text>
</g>
<!-- N5 -->
<g id="node6" class="node"><title>N5</title>
<polygon fill="none" stroke="black" points="381.5,-234 80.5,-234 80.5,-85 381.5,-85 381.5,-234"/>
<text text-anchor="middle" x="231" y="-195.52" font-family="Times,serif" font-size="43.10">resid</text>
<text text-anchor="end" x="373.5" y="-148.52" font-family="Times,serif" font-size="43.10">1662 (49.2%)</text>
<text text-anchor="end" x="373.5" y="-101.52" font-family="Times,serif" font-size="43.10">of 1675 (49.6%)</text>
</g>
<!-- N3&#45;&gt;N5 -->
<g id="edge6" class="edge"><title>N3&#45;&gt;N5</title>
<path fill="none" stroke="black" stroke-width="1.46446" d="M443.199,-385.876C430.233,-372.225 411.406,-352.38 395,-335 366.191,-304.482 334.603,-270.899 306.905,-241.413"/>
<polygon fill="black" stroke="black" stroke-width="1.46446" points="309.349,-238.903 299.952,-234.01 304.247,-243.695 309.349,-238.903"/>
<text text-anchor="middle" x="405.5" y="-306.3" font-family="Times,serif" font-size="14.00">824</text>
</g>
<!-- N9 -->
<g id="node10" class="node"><title>N9</title>
<polygon fill="none" stroke="black" points="1020.5,-333.5 937.5,-333.5 937.5,-286.5 1020.5,-286.5 1020.5,-333.5"/>
<text text-anchor="middle" x="979" y="-320.06" font-family="Times,serif" font-size="11.80">zran3</text>
<text text-anchor="end" x="1012.5" y="-307.06" font-family="Times,serif" font-size="11.80">19 (0.6%)</text>
<text text-anchor="end" x="1012.5" y="-294.06" font-family="Times,serif" font-size="11.80">of 166 (4.9%)</text>
</g>
<!-- N3&#45;&gt;N9 -->
<g id="edge9" class="edge"><title>N3&#45;&gt;N9</title>
<path fill="none" stroke="black" d="M495.811,-402.89C591.072,-403.404 843.499,-401.473 919,-368 932.635,-361.955 945.077,-351.441 955.052,-341.075"/>
<polygon fill="black" stroke="black" points="957.702,-343.364 961.862,-333.62 952.533,-338.643 957.702,-343.364"/>
<text text-anchor="middle" x="951.5" y="-356.8" font-family="Times,serif" font-size="14.00">166</text>
</g>
<!-- N11 -->
<g id="node12" class="node"><title>N11</title>
<polygon fill="none" stroke="black" points="1121.5,-335 1038.5,-335 1038.5,-285 1121.5,-285 1121.5,-335"/>
<text text-anchor="middle" x="1080" y="-320.68" font-family="Times,serif" font-size="12.90">norm2u3</text>
<text text-anchor="end" x="1113.5" y="-306.68" font-family="Times,serif" font-size="12.90">33 (1.0%)</text>
<text text-anchor="end" x="1113.5" y="-292.68" font-family="Times,serif" font-size="12.90">of 66 (2.0%)</text>
</g>
<!-- N3&#45;&gt;N11 -->
<g id="edge11" class="edge"><title>N3&#45;&gt;N11</title>
<path fill="none" stroke="black" d="M495.721,-401.873C596.757,-399.85 877.256,-392.159 966,-368 988.959,-361.75 1012.74,-350.693 1032.61,-339.971"/>
<polygon fill="black" stroke="black" points="1034.39,-342.988 1041.45,-335.087 1031,-336.862 1034.39,-342.988"/>
<text text-anchor="middle" x="1012" y="-356.8" font-family="Times,serif" font-size="14.00">66</text>
</g>
<!-- N12 -->
<g id="node13" class="node"><title>N12</title>
<polygon fill="none" stroke="black" points="973,-178.5 903,-178.5 903,-140.5 973,-140.5 973,-178.5"/>
<text text-anchor="middle" x="938" y="-163.78" font-family="Times,serif" font-size="13.40">zero3</text>
<text text-anchor="end" x="965" y="-148.78" font-family="Times,serif" font-size="13.40">40 (1.2%)</text>
</g>
<!-- N3&#45;&gt;N12 -->
<g id="edge15" class="edge"><title>N3&#45;&gt;N12</title>
<path fill="none" stroke="black" d="M495.547,-398.598C572.418,-388.785 753.496,-357.07 872,-267 898.636,-246.755 917.09,-212.393 927.579,-188.185"/>
<polygon fill="black" stroke="black" points="930.864,-189.399 931.461,-178.821 924.398,-186.718 930.864,-189.399"/>
<text text-anchor="middle" x="852" y="-306.3" font-family="Times,serif" font-size="14.00">13</text>
</g>
<!-- N4&#45;&gt;N5 -->
<g id="edge5" class="edge"><title>N4&#45;&gt;N5</title>
<path fill="none" stroke="black" stroke-width="1.51244" d="M433.289,-292.254C413.01,-279.046 383.126,-259.582 352.517,-239.646"/>
<polygon fill="black" stroke="black" stroke-width="1.51244" points="354.162,-236.54 343.872,-234.015 350.341,-242.406 354.162,-236.54"/>
<text text-anchor="middle" x="401.5" y="-255.8" font-family="Times,serif" font-size="14.00">851</text>
</g>
<!-- N6 -->
<g id="node7" class="node"><title>N6</title>
<polygon fill="none" stroke="black" points="761,-220.5 537,-220.5 537,-98.5 761,-98.5 761,-220.5"/>
<text text-anchor="middle" x="649" y="-188.98" font-family="Times,serif" font-size="34.40">psinv</text>
<text text-anchor="end" x="753" y="-150.98" font-family="Times,serif" font-size="34.40">943 (27.9%)</text>
<text text-anchor="end" x="753" y="-112.98" font-family="Times,serif" font-size="34.40">of 951 (28.2%)</text>
</g>
<!-- N4&#45;&gt;N6 -->
<g id="edge4" class="edge"><title>N4&#45;&gt;N6</title>
<path fill="none" stroke="black" stroke-width="1.69017" d="M480.426,-292.254C500.917,-276.239 533.173,-251.028 564.008,-226.928"/>
<polygon fill="black" stroke="black" stroke-width="1.69017" points="566.507,-229.417 572.231,-220.501 562.197,-223.901 566.507,-229.417"/>
<text text-anchor="middle" x="541.5" y="-255.8" font-family="Times,serif" font-size="14.00">951</text>
</g>
<!-- N7 -->
<g id="node8" class="node"><title>N7</title>
<polygon fill="none" stroke="black" points="518.5,-188.5 399.5,-188.5 399.5,-130.5 518.5,-130.5 518.5,-188.5"/>
<text text-anchor="middle" x="459" y="-166.42" font-family="Times,serif" font-size="22.60">interp</text>
<text text-anchor="end" x="510.5" y="-141.42" font-family="Times,serif" font-size="22.60">287 (8.5%)</text>
</g>
<!-- N4&#45;&gt;N7 -->
<g id="edge7" class="edge"><title>N4&#45;&gt;N7</title>
<path fill="none" stroke="black" d="M459,-292.254C459,-269.727 459,-229.004 459,-198.774"/>
<polygon fill="black" stroke="black" points="462.5,-198.565 459,-188.565 455.5,-198.565 462.5,-198.565"/>
<text text-anchor="middle" x="469.5" y="-255.8" font-family="Times,serif" font-size="14.00">287</text>
</g>
<!-- N8 -->
<g id="node9" class="node"><title>N8</title>
<polygon fill="none" stroke="black" points="885,-185.5 779,-185.5 779,-133.5 885,-133.5 885,-185.5"/>
<text text-anchor="middle" x="832" y="-165.42" font-family="Times,serif" font-size="20.10">rprj3</text>
<text text-anchor="end" x="877" y="-143.42" font-family="Times,serif" font-size="20.10">199 (5.9%)</text>
</g>
<!-- N4&#45;&gt;N8 -->
<g id="edge8" class="edge"><title>N4&#45;&gt;N8</title>
<path fill="none" stroke="black" d="M493.885,-307.583C554.411,-303.679 680.929,-289.021 770,-234 786.265,-223.952 800.386,-208.185 811.025,-193.826"/>
<polygon fill="black" stroke="black" points="813.939,-195.768 816.877,-185.589 808.233,-191.714 813.939,-195.768"/>
<text text-anchor="middle" x="741.5" y="-255.8" font-family="Times,serif" font-size="14.00">199</text>
</g>
<!-- N4&#45;&gt;N12 -->
<g id="edge14" class="edge"><title>N4&#45;&gt;N12</title>
<path fill="none" stroke="black" d="M493.681,-306.966C585.107,-301 830.052,-280.925 894,-234 909.589,-222.561 920.693,-203.782 927.846,-188.071"/>
<polygon fill="black" stroke="black" points="931.106,-189.349 931.794,-178.777 924.663,-186.612 931.106,-189.349"/>
<text text-anchor="middle" x="861" y="-255.8" font-family="Times,serif" font-size="14.00">15</text>
</g>
<!-- N15 -->
<g id="node16" class="node"><title>N15</title>
<polygon fill="none" stroke="black" points="263,-34 199,-34 199,-0 263,-0 263,-34"/>
<text text-anchor="middle" x="231" y="-20.48" font-family="Times,serif" font-size="11.90">comm3</text>
<text text-anchor="end" x="255" y="-7.48" font-family="Times,serif" font-size="11.90">21 (0.6%)</text>
</g>
<!-- N5&#45;&gt;N15 -->
<g id="edge16" class="edge"><title>N5&#45;&gt;N15</title>
<path fill="none" stroke="black" d="M231,-84.9581C231,-70.4674 231,-56.164 231,-44.5211"/>
<polygon fill="black" stroke="black" points="234.5,-44.2544 231,-34.2544 227.5,-44.2544 234.5,-44.2544"/>
<text text-anchor="middle" x="238" y="-55.8" font-family="Times,serif" font-size="14.00">13</text>
</g>
<!-- N6&#45;&gt;N15 -->
<g id="edge18" class="edge"><title>N6&#45;&gt;N15</title>
<path fill="none" stroke="black" d="M556.768,-98.3908C547.26,-93.4421 537.572,-88.8662 528,-85 441.078,-49.8912 332.048,-31.2715 273.26,-23.1445"/>
<polygon fill="black" stroke="black" points="273.608,-19.6598 263.23,-21.7928 272.673,-26.5971 273.608,-19.6598"/>
<text text-anchor="middle" x="476.5" y="-55.8" font-family="Times,serif" font-size="14.00">8</text>
</g>
<!-- N10 -->
<g id="node11" class="node"><title>N10</title>
<polygon fill="none" stroke="black" points="1089,-183.5 991,-183.5 991,-135.5 1089,-135.5 1089,-183.5"/>
<text text-anchor="middle" x="1040" y="-165.1" font-family="Times,serif" font-size="18.00">vranlc</text>
<text text-anchor="end" x="1081" y="-145.1" font-family="Times,serif" font-size="18.00">135 (4.0%)</text>
</g>
<!-- N9&#45;&gt;N10 -->
<g id="edge10" class="edge"><title>N9&#45;&gt;N10</title>
<path fill="none" stroke="black" d="M988.265,-286.446C998.461,-261.624 1014.94,-221.499 1026.56,-193.22"/>
<polygon fill="black" stroke="black" points="1029.88,-194.337 1030.45,-183.757 1023.41,-191.677 1029.88,-194.337"/>
<text text-anchor="middle" x="1012.5" y="-255.8" font-family="Times,serif" font-size="14.00">135</text>
</g>
<!-- N9&#45;&gt;N12 -->
<g id="edge17" class="edge"><title>N9&#45;&gt;N12</title>
<path fill="none" stroke="black" d="M972.773,-286.446C965.511,-260.142 953.504,-216.655 945.673,-188.29"/>
<polygon fill="black" stroke="black" points="949.028,-187.292 942.993,-178.584 942.28,-189.155 949.028,-187.292"/>
<text text-anchor="middle" x="973" y="-255.8" font-family="Times,serif" font-size="14.00">12</text>
</g>
<!-- N13 -->
<g id="node14" class="node"><title>N13</title>
<polygon fill="none" stroke="black" points="1179,-181.5 1107,-181.5 1107,-137.5 1179,-137.5 1179,-181.5"/>
<text text-anchor="middle" x="1143" y="-168.7" font-family="Times,serif" font-size="11.00">pow</text>
<text text-anchor="end" x="1171" y="-156.7" font-family="Times,serif" font-size="11.00">12 (0.4%)</text>
<text text-anchor="end" x="1171" y="-144.7" font-family="Times,serif" font-size="11.00">of 33 (1.0%)</text>
</g>
<!-- N11&#45;&gt;N13 -->
<g id="edge12" class="edge"><title>N11&#45;&gt;N13</title>
<path fill="none" stroke="black" d="M1090.26,-284.81C1101.12,-259.226 1118.27,-218.799 1130.05,-191.036"/>
<polygon fill="black" stroke="black" points="1133.28,-192.362 1133.97,-181.789 1126.84,-189.628 1133.28,-192.362"/>
<text text-anchor="middle" x="1111" y="-255.8" font-family="Times,serif" font-size="14.00">33</text>
</g>
<!-- N14 -->
<g id="node15" class="node"><title>N14</title>
<polygon fill="none" stroke="black" points="1186,-34 1100,-34 1100,-0 1186,-0 1186,-34"/>
<text text-anchor="middle" x="1143" y="-20.48" font-family="Times,serif" font-size="11.90">__log10_finite</text>
<text text-anchor="end" x="1178" y="-7.48" font-family="Times,serif" font-size="11.90">21 (0.6%)</text>
</g>
<!-- N13&#45;&gt;N14 -->
<g id="edge13" class="edge"><title>N13&#45;&gt;N14</title>
<path fill="none" stroke="black" d="M1143,-137.466C1143,-112.706 1143,-71.554 1143,-44.601"/>
<polygon fill="black" stroke="black" points="1146.5,-44.349 1143,-34.349 1139.5,-44.3491 1146.5,-44.349"/>
<text text-anchor="middle" x="1150" y="-55.8" font-family="Times,serif" font-size="14.00">21</text>
</g>
</g>
</g></svg>
